Coordinates
version=1
nRows=15
nColumns=63
inDegrees=yes

Units are S.I. units (second, meters, Newtons, ...)
If the header above contains a line with 'inDegrees', this indicates whether rotational values are in degrees (yes) or radians (no).

endheader
time	pelvis_tilt	pelvis_list	pelvis_rotation	pelvis_tx	pelvis_ty	pelvis_tz	hip_flexion_r	hip_adduction_r	hip_rotation_r	knee_angle_r	knee_angle_r_beta	ankle_angle_r	subtalar_angle_r	mtp_angle_r	hip_flexion_l	hip_adduction_l	hip_rotation_l	knee_angle_l	knee_angle_l_beta	ankle_angle_l	subtalar_angle_l	mtp_angle_l	L5_S1_Flex_Ext	L5_S1_Lat_Bending	L5_S1_axial_rotation	L4_L5_Flex_Ext	L4_L5_Lat_Bending	L4_L5_axial_rotation	L3_L4_Flex_Ext	L3_L4_Lat_Bending	L3_L4_axial_rotation	L2_L3_Flex_Ext	L2_L3_Lat_Bending	L2_L3_axial_rotation	L1_L2_Flex_Ext	L1_L2_Lat_Bending	L1_L2_axial_rotation	L1_T12_Flex_Ext	L1_T12_Lat_Bending	L1_T12_axial_rotation	Abs_r3	Abs_r2	Abs_r1	Abs_t1	Abs_t2	neck_flexion	neck_bending	neck_rotation	arm_flex_r	arm_add_r	arm_rot_r	elbow_flex_r	pro_sup_r	wrist_flex_r	wrist_dev_r	arm_flex_l	arm_add_l	arm_rot_l	elbow_flex_l	pro_sup_l	wrist_flex_l	wrist_dev_l
1.728814	0.022612	-6.256333	89.080510	0.455118	0.729667	1.015508	4.104394	1.470654	4.686426	4.666857	0.081452	28.292282	3.081966	0.000000	4.326920	-1.570108	-10.749929	8.505440	0.148448	33.496966	5.366216	0.000000	0.076004	0.277115	2.531278	0.141146	0.368563	2.689483	0.124866	0.673777	2.689483	0.086864	0.673777	2.214868	0.070577	0.565093	2.056663	0.043428	0.429251	1.898458	0.542886	3.134779	14.078208	0.000000	0.000000	28.237658	-5.490941	3.453776	-5.336336	-13.165164	19.373774	29.293186	86.380230	-7.508651	6.541354	11.005353	-9.544245	98.951199	8.573814	43.593985	-6.450315	-12.956979
1.745763	0.070764	-6.293921	89.035129	0.455283	0.729484	1.015548	4.155408	1.534281	4.856181	4.687746	0.081817	28.342260	2.959317	0.000000	4.358682	-1.676188	-11.367415	8.560089	0.149402	33.707836	6.181999	0.000000	0.077237	0.277071	2.573038	0.143437	0.368504	2.733853	0.126893	0.673670	2.733853	0.088274	0.673670	2.251409	0.071722	0.565002	2.090594	0.044133	0.429182	1.929779	0.551696	3.134278	14.310467	0.000000	0.000000	28.231079	-5.347502	3.325303	-5.594048	-13.291940	19.729558	29.159893	86.445611	-7.731223	6.368774	10.974131	-9.393243	99.483969	8.276069	42.463136	-6.471879	-13.506400
1.762712	0.119961	-6.315663	88.987774	0.455416	0.729308	1.015548	4.182255	1.597285	5.056803	4.720179	0.082383	28.366054	2.778602	0.000000	4.362459	-1.781343	-11.994324	8.606080	0.150204	33.894595	6.983800	0.000000	0.077538	0.277865	2.617398	0.143995	0.369561	2.780985	0.127387	0.675601	2.780985	0.088618	0.675601	2.290223	0.072002	0.566623	2.126636	0.044305	0.430413	1.963048	0.553845	3.143266	14.557180	0.000000	0.000000	28.224798	-5.310747	3.060843	-5.873439	-13.389406	19.858996	29.137278	86.548945	-7.820182	6.272762	10.974093	-9.183512	99.708223	7.925277	41.428228	-6.340827	-14.067024
1.779661	0.159734	-6.328406	88.934852	0.455525	0.729140	1.015516	4.191375	1.652848	5.367806	4.758923	0.083059	28.342689	2.440224	0.000000	4.344207	-1.858459	-12.416019	8.621476	0.150473	34.009875	7.488728	0.000000	0.077710	0.278479	2.660226	0.144315	0.370378	2.826490	0.127669	0.677095	2.826490	0.088814	0.677095	2.327698	0.072161	0.567875	2.161434	0.044403	0.431365	1.995170	0.555072	3.150214	14.795380	0.000000	0.000000	28.224229	-5.381119	2.704877	-6.146026	-13.469339	19.841278	29.210137	86.639394	-7.799952	6.271486	10.995256	-8.936253	100.357363	7.517981	39.720798	-6.096065	-14.623910
1.796610	0.181574	-6.316042	88.874839	0.455610	0.729012	1.015446	4.165116	1.691295	5.767284	4.798514	0.083750	28.276007	1.975301	0.000000	4.288809	-1.897144	-12.624052	8.603094	0.150152	34.055149	7.694169	0.000000	0.075864	0.278506	2.697665	0.140887	0.370414	2.866269	0.124637	0.677161	2.866269	0.086705	0.677161	2.360457	0.070448	0.567930	2.191853	0.043349	0.431407	2.023249	0.541891	3.150521	15.003605	0.000000	0.000000	28.203073	-5.558232	2.320863	-6.382013	-13.533180	19.711084	29.347727	86.743689	-7.679847	6.383287	11.008504	-8.665986	101.419134	7.047092	37.348677	-5.815960	-15.208841
1.813559	0.195449	-6.296167	88.838288	0.455653	0.728900	1.015406	4.123804	1.723981	6.231156	4.831671	0.084329	28.158566	1.376068	0.000000	4.235086	-1.916213	-12.676076	8.575044	0.149663	34.064474	7.728010	0.000000	0.073886	0.279374	2.722670	0.137213	0.371567	2.892836	0.121387	0.679269	2.892836	0.084444	0.679269	2.382336	0.068610	0.569699	2.212169	0.042218	0.432750	2.042002	0.527757	3.160330	15.142671	0.000000	0.000000	28.173410	-5.718524	2.083756	-6.595956	-13.573242	19.331947	29.585439	86.854371	-7.383305	6.697061	11.026394	-8.392438	102.900217	6.513648	34.446171	-5.410396	-15.780378
1.830508	0.194941	-6.243298	88.786742	0.455696	0.728834	1.015374	4.047242	1.744193	6.755739	4.867240	0.084949	28.002320	0.694615	0.000000	4.140791	-1.898645	-12.478706	8.509283	0.148515	34.009302	7.428359	0.000000	0.068831	0.279771	2.745423	0.127827	0.372095	2.917012	0.113083	0.680235	2.917012	0.078667	0.680235	2.402245	0.063917	0.570509	2.230656	0.039330	0.433365	2.059067	0.491656	3.164824	15.269219	0.000000	0.000000	28.110066	-6.012479	1.772379	-6.747402	-13.611371	18.915461	29.846862	86.952005	-6.990247	7.089907	11.061875	-8.114485	104.979669	5.909845	30.971564	-5.040841	-16.372245
1.847458	0.165813	-6.165586	88.750266	0.455733	0.728809	1.015405	3.949263	1.732246	7.216741	4.906857	0.085641	27.829625	0.063935	0.000000	4.035198	-1.848665	-12.250362	8.443542	0.147368	33.935861	7.114037	0.000000	0.060997	0.276922	2.756639	0.113278	0.368306	2.928929	0.100212	0.673307	2.928929	0.069714	0.673307	2.412059	0.056642	0.564698	2.239769	0.034854	0.428952	2.067479	0.435696	3.132592	15.331600	0.000000	0.000000	28.000911	-6.350564	1.414377	-6.775985	-13.643310	18.627577	30.057263	87.064310	-6.615060	7.530871	11.021606	-7.903063	105.460680	5.385490	28.907324	-4.925002	-16.956920
1.864407	0.139059	-6.067030	88.718140	0.455743	0.728807	1.015460	3.833186	1.721775	7.669270	4.951491	0.086420	27.638216	-0.575210	0.000000	3.907554	-1.784082	-11.863031	8.353436	0.145795	33.814374	6.577432	0.000000	0.051777	0.275648	2.760479	0.096155	0.366612	2.933009	0.085065	0.670211	2.933009	0.059176	0.670211	2.415419	0.048080	0.562102	2.242889	0.029585	0.426979	2.070359	0.369839	3.118187	15.352954	0.000000	0.000000	27.852858	-6.790032	1.045929	-6.691342	-13.700356	18.434040	30.230490	87.167322	-6.115916	8.056292	10.986459	-7.722039	105.768884	4.849353	27.147151	-4.922719	-17.593946
1.881356	0.085964	-5.953697	88.701515	0.455733	0.728818	1.015549	3.699645	1.681891	8.074116	4.982137	0.086955	27.439636	-1.195528	0.000000	3.779177	-1.688488	-11.449343	8.277976	0.144478	33.672924	5.999614	0.000000	0.041070	0.271370	2.758785	0.076270	0.360922	2.931209	0.067473	0.659809	2.931209	0.046938	0.659809	2.413937	0.038137	0.553377	2.241513	0.023467	0.420352	2.069089	0.293356	3.069790	15.343535	0.000000	0.000000	27.668201	-7.232276	0.645050	-6.469143	-13.798406	18.491745	30.342180	87.310259	-5.636378	8.620335	11.001623	-7.606811	105.930806	4.392451	25.718626	-5.218103	-18.199910
1.898305	0.007299	-5.830223	88.717897	0.455683	0.728857	1.015642	3.544876	1.613319	8.480350	4.982752	0.086965	27.216700	-1.860869	0.000000	3.640703	-1.555712	-10.941459	8.184801	0.142852	33.485559	5.318789	0.000000	0.029445	0.264261	2.745738	0.054683	0.351467	2.917347	0.048376	0.642524	2.917347	0.033653	0.642524	2.402521	0.027343	0.538881	2.230912	0.016825	0.409340	2.059304	0.210326	2.989373	15.270972	0.000000	0.000000	27.449971	-7.706649	0.226167	-6.094766	-13.951562	18.891285	30.344513	87.437308	-5.383812	9.084998	11.086654	-7.577861	106.856232	4.010895	23.405024	-5.605587	-18.728931
1.915254	-0.075913	-5.705281	88.739016	0.455591	0.728886	1.015731	3.381651	1.535552	8.826211	4.955295	0.086486	27.018543	-2.441781	0.000000	3.503248	-1.409561	-10.348804	8.087784	0.141158	33.285290	4.531899	0.000000	0.018271	0.256470	2.738102	0.033931	0.341105	2.909233	0.030017	0.623582	2.909233	0.020882	0.623582	2.395839	0.016966	0.522994	2.224708	0.010440	0.397272	2.053576	0.130506	2.901243	15.228502	0.000000	0.000000	27.190900	-8.212066	-0.295077	-5.690565	-14.143654	19.252686	30.365875	87.611610	-5.265305	9.484362	11.226852	-7.591847	106.677828	3.744770	22.228929	-6.119045	-19.155449
1.932203	-0.171608	-5.577373	88.739400	0.455499	0.728918	1.015803	3.215952	1.440868	9.072663	4.911484	0.085722	26.884336	-2.838587	0.000000	3.353073	-1.239961	-9.669615	7.963678	0.138992	33.062572	3.617087	0.000000	0.006430	0.247106	2.740021	0.011942	0.328651	2.911273	0.010564	0.600814	2.911273	0.007349	0.600814	2.397519	0.005971	0.503899	2.226267	0.003674	0.382768	2.055016	0.045931	2.795315	15.239176	0.000000	0.000000	26.907957	-8.762572	-0.909984	-5.275795	-14.348334	19.484542	30.412770	87.758491	-5.308369	9.757763	11.423566	-7.653959	105.445661	3.599698	22.177976	-6.758306	-19.434872
1.949153	-0.281338	-5.453330	88.728157	0.455386	0.728953	1.015858	3.056150	1.323903	9.189244	4.853620	0.084712	26.830211	-3.004505	0.000000	3.205865	-1.055328	-9.036794	7.830815	0.136674	32.870622	2.766062	0.000000	-0.005217	0.236378	2.747288	-0.009689	0.314382	2.918993	-0.008571	0.574729	2.918993	-0.005963	0.574729	2.403877	-0.004845	0.482022	2.232171	-0.002981	0.366149	2.060466	-0.037265	2.673953	15.279589	0.000000	0.000000	26.611407	-9.295513	-1.546070	-4.893655	-14.531779	19.406957	30.524305	87.937545	-5.536103	9.878319	11.655495	-7.765849	103.120817	3.570544	23.168484	-7.430032	-19.525674
1.966102	-0.404603	-5.335662	88.688687	0.455284	0.728996	1.015858	2.893214	1.195764	9.372531	4.759164	0.083063	26.800871	-3.191849	0.000000	3.055605	-0.856739	-8.434936	7.680833	0.134056	32.699457	1.959324	0.000000	-0.015584	0.224647	2.763143	-0.028942	0.298781	2.935840	-0.025604	0.546208	2.935840	-0.017811	0.546208	2.417750	-0.014472	0.458101	2.245054	-0.008905	0.347979	2.072358	-0.111318	2.541257	15.367775	0.000000	0.000000	26.316632	-9.792308	-2.165996	-4.594491	-14.679596	18.927074	30.725211	88.101256	-5.911343	9.800975	11.969910	-7.883598	101.422082	3.527278	23.573270	-8.035667	-19.502741
